<?xml version="1.0" standalone="no"?><!DOCTYPE svg PUBLIC "-//W3C//DTD SVG 1.1//EN" "http://www.w3.org/Graphics/SVG/1.1/DTD/svg11.dtd"><svg t="1650540765057" class="icon" viewBox="0 0 1024 1024" version="1.1" xmlns="http://www.w3.org/2000/svg" p-id="2106" xmlns:xlink="http://www.w3.org/1999/xlink" width="200" height="200"><defs><style type="text/css">@font-face { font-family: feedback-iconfont; src: url("//at.alicdn.com/t/font_1031158_u69w8yhxdu.woff2?t=1630033759944") format("woff2"), url("//at.alicdn.com/t/font_1031158_u69w8yhxdu.woff?t=1630033759944") format("woff"), url("//at.alicdn.com/t/font_1031158_u69w8yhxdu.ttf?t=1630033759944") format("truetype"); }
</style></defs><path d="M403.4 772.6c-8.6 0-16.9-4.6-21.3-12.6-6.7-12.2-13.5-24.8-20.3-37.6-6.3-11.8-1.8-26.6 10-32.9 11.8-6.3 26.5-1.8 32.9 10 6.7 12.6 13.4 25 20.1 37.1 6.4 11.8 2.1 26.5-9.7 33-3.7 2-7.7 3-11.7 3z" fill="#3778FF" p-id="2107"></path><path d="M510.6 112.8c-5.1 0-10.2 0.2-15.2 0.5-91.1 42.4-154.3 134.8-154.3 241.9 0 101 125.3 335.2 204.2 472.6C631.3 678.6 753 447.4 753 355.2c0-133.6-108.7-242.4-242.4-242.4z" fill="#91B4FF" p-id="2108"></path><path d="M510.6 957.9c-8.4 0-16.2-4.4-20.7-11.5-0.3-0.4-27.6-44.6-64.2-108.4-6.7-11.6-2.6-26.5 9-33.2 11.6-6.7 26.5-2.6 33.2 9 16.8 29.3 31.6 54.4 42.7 72.9 83-138.4 242.4-426 242.4-531.5 0-133.7-108.7-242.4-242.4-242.4S268.2 221.6 268.2 355.2c0 34.2 17.6 109.9 101.3 276.4 6 12 1.2 26.6-10.8 32.6s-26.6 1.2-32.6-10.8c-71.6-142.5-106.5-240-106.5-298.2 0-160.5 130.6-291 291-291s291 130.6 291 291c0 152.5-259.3 573.3-270.3 591.1-4.5 7.2-12.3 11.6-20.7 11.6z" fill="#3778FF" p-id="2109"></path><path d="M510.6 448.7c-66.2 0-120-53.8-120-119.9 0-66.1 53.8-120 120-120 66.1 0 119.9 53.8 119.9 120 0.1 66-53.7 119.9-119.9 119.9z m0-191.3c-39.3 0-71.4 32-71.4 71.3s32 71.3 71.4 71.3c39.3 0 71.3-32 71.3-71.3s-31.9-71.3-71.3-71.3z" fill="#3778FF" p-id="2110"></path></svg>