<?xml version="1.0" standalone="no"?><!DOCTYPE svg PUBLIC "-//W3C//DTD SVG 1.1//EN" "http://www.w3.org/Graphics/SVG/1.1/DTD/svg11.dtd"><svg t="1650508831820" class="icon" viewBox="0 0 1024 1024" version="1.1" xmlns="http://www.w3.org/2000/svg" p-id="6888" xmlns:xlink="http://www.w3.org/1999/xlink" width="200" height="200"><defs><style type="text/css">@font-face { font-family: feedback-iconfont; src: url("//at.alicdn.com/t/font_1031158_u69w8yhxdu.woff2?t=1630033759944") format("woff2"), url("//at.alicdn.com/t/font_1031158_u69w8yhxdu.woff?t=1630033759944") format("woff"), url("//at.alicdn.com/t/font_1031158_u69w8yhxdu.ttf?t=1630033759944") format("truetype"); }
</style></defs><path d="M594.2 600.2c-4.6 0-9.2-1-13.4-3.2l-68.9-34.5-68.8 34.5c-9.3 4.6-20.3 4.1-29.1-1.3-8.8-5.5-14.2-15.1-14.2-25.4V371.5c0-16.5 13.4-29.9 29.9-29.9s29.9 13.4 29.9 29.9v150.4l39-19.5c8.4-4.2 18.3-4.2 26.7 0l39 19.5V371.5c0-16.5 13.4-29.9 29.9-29.9s29.9 13.4 29.9 29.9v198.8c0 10.4-5.4 20-14.2 25.4-4.8 3-10.2 4.5-15.7 4.5z" p-id="6889"></path><path d="M777.2 887.9H246.9c-38.4 0-69.8-31.3-69.8-69.8V330.5c0-16.5 13.4-29.9 29.9-29.9h610c16.5 0 29.9 13.4 29.9 29.9v487.7c0 38.4-31.3 69.7-69.7 69.7zM236.9 360.3v457.8c0 5.5 4.5 10 10 10h530.3c5.5 0 10-4.5 10-10V360.3H236.9z" p-id="6890"></path><path d="M859.6 360.3H164.4c-38.4 0-69.8-31.3-69.8-69.8v-84.7c0-38.4 31.3-69.8 69.8-69.8h695.2c38.5 0 69.8 31.3 69.8 69.8v84.7c0 38.5-31.3 69.8-69.8 69.8zM164.4 195.9c-5.5 0-10 4.5-10 10v84.7c0 5.5 4.5 10 10 10h695.2c5.5 0 10-4.5 10-10v-84.7c0-5.5-4.5-10-10-10H164.4z" p-id="6891"></path></svg>