<?xml version="1.0" standalone="no"?><!DOCTYPE svg PUBLIC "-//W3C//DTD SVG 1.1//EN" "http://www.w3.org/Graphics/SVG/1.1/DTD/svg11.dtd"><svg t="1650508957020" class="icon" viewBox="0 0 1024 1024" version="1.1" xmlns="http://www.w3.org/2000/svg" p-id="8347" xmlns:xlink="http://www.w3.org/1999/xlink" width="200" height="200"><defs><style type="text/css">@font-face { font-family: feedback-iconfont; src: url("//at.alicdn.com/t/font_1031158_u69w8yhxdu.woff2?t=1630033759944") format("woff2"), url("//at.alicdn.com/t/font_1031158_u69w8yhxdu.woff?t=1630033759944") format("woff"), url("//at.alicdn.com/t/font_1031158_u69w8yhxdu.ttf?t=1630033759944") format("truetype"); }
</style></defs><path d="M523.81 947.506c-154.37 0-325.726 0-325.726 0-34.818 0-63.04-27.984-63.04-62.502L135.044 135.008c0-34.524 28.224-62.5 63.04-62.5l377.35 0c-0.574 74.836 0.894 124.998 0.894 124.998 0 69.04 56.448 125 126.082 125 0 0 52.686 0 126.082 0 0 0 0 149.146 0 238.95 0 30.144 63.04 34.074 63.04 0.556 0-90.076 0-239.506 0-239.506l0-62.5L639.368 10.006l0 0.896c-4.056 0-20.85-1.556-63.04-0.896L198.084 10.006c-69.634 0-126.082 55.964-126.082 125.002l0 749.994c0 69.038 56.448 125.002 126.082 125.002 0 0 308.37-0.004 323.882 0C552.32 1010.016 558.798 947.506 523.81 947.506zM639.368 72.508l189.122 187.496-126.082 0c-34.816 0-63.04-27.984-63.04-62.5C639.368 197.504 639.368 146.914 639.368 72.508zM882.958 651.376 684.168 874.12l-122.04-121.554-61.002 60.754 183.044 182.308 259.79-283.502L882.958 651.376z" p-id="8348"></path></svg>