<?xml version="1.0" standalone="no"?><!DOCTYPE svg PUBLIC "-//W3C//DTD SVG 1.1//EN" "http://www.w3.org/Graphics/SVG/1.1/DTD/svg11.dtd"><svg t="1650507424725" class="icon" viewBox="0 0 1024 1024" version="1.1" xmlns="http://www.w3.org/2000/svg" p-id="3902" xmlns:xlink="http://www.w3.org/1999/xlink" width="200" height="200"><defs><style type="text/css">@font-face { font-family: feedback-iconfont; src: url("//at.alicdn.com/t/font_1031158_u69w8yhxdu.woff2?t=1630033759944") format("woff2"), url("//at.alicdn.com/t/font_1031158_u69w8yhxdu.woff?t=1630033759944") format("woff"), url("//at.alicdn.com/t/font_1031158_u69w8yhxdu.ttf?t=1630033759944") format("truetype"); }
</style></defs><path d="M365.5 170H254.6c-9.7 0-17.6 7.9-17.6 17.6V258c0 9.7 7.9 17.6 17.6 17.6h300.7c9.7 0 17.6-7.9 17.6-17.6v-70.4c0-9.7-7.9-17.6-17.6-17.6H444.4c-0.1 0-0.2-0.1-0.1-0.2 1.4-4.3 2.2-8.7 2.2-13.1 0-22.9-18.6-41.5-41.5-41.5s-41.6 18.6-41.6 41.5c0 4.4 0.7 8.8 2.2 13.1 0 0.1 0 0.2-0.1 0.2z m2 19.1c4.9 0 9.7-1.8 13.1-5.4 4.8-5.1 6.1-12.3 3.6-18.6-1.1-2.7-1.7-5.6-1.7-8.4 0-12.4 10.1-22.5 22.5-22.5s22.4 10.1 22.4 22.5c0 2.8-0.6 5.6-1.7 8.4-2.5 6.3-1.2 13.5 3.7 18.6 3.4 3.5 8.2 5.3 13 5.3h111.3c0.1 0 0.1 0.1 0.1 0.1v67.1c0 0.1-0.1 0.1-0.1 0.1H256.2c-0.1 0-0.1-0.1-0.1-0.1v-67.1c0-0.1 0.1-0.1 0.1-0.1l111.3 0.1zM949 663.7c8.7-10.3 11.4-20.6 11.4-29.2 0-18.3-11.9-44-68.7-62.2-36.6-11.7-84.8-18.2-135.8-18.2-51.8 0-100.7 6.6-137.5 18.7-55.5 18.2-67.1 43.6-67.1 61.7 0 8.6 2.6 18.9 11.4 29.2-8.9 10.7-11.4 21.1-11.4 29.2 0 9.1 3 20.1 13 31.1-10.2 11.2-13 22.4-13 31.1 0 9.3 3.1 20.6 13.6 31.7-10.7 11.5-13.6 22.9-13.6 31.7 0 7.9 2.4 19.5 13 31.1-10.3 11.2-13 22.4-13 31.1 0 18.3 11.9 44 68.7 62.2 36.6 11.7 84.8 18.2 135.8 18.2 51 0 99.2-6.4 135.8-18.2 56.8-18.2 68.7-43.9 68.7-62.2 0-8.7-2.8-19.9-13-31.1 10.1-11 13-22 13-31.1 0-8.9-2.9-20.3-13.6-31.7 10.5-11.2 13.6-22.4 13.6-31.7 0-8.7-2.8-19.8-13-31.1 10-11 13-21.9 13-31.1 0.1-8.2-2.4-18.6-11.3-29.2z m-33.8 218.5c-3.8 4.4-15.7 13-43.4 20.9-31.6 9.1-72.8 14.1-116 14.1s-84.4-5-116-14.1c-27.6-7.9-39.5-16.6-43.4-20.9-0.7-0.8-0.7-2 0-2.8 1.1-1.2 2.9-3 6-5.1 11.7 4.9 25.4 9.2 41 12.8 33 7.7 71.8 11.8 112.4 11.8 51 0 99.2-6.4 135.8-18.2 6.4-2.1 12.3-4.2 17.6-6.4 3.1 2.1 4.9 3.9 6 5.1 0.7 0.8 0.7 2 0 2.8z m0-62.3c-3.8 4.4-15.7 13-43.4 20.9-31.6 9.2-72.8 14.2-116 14.2-78.1 0-137-16-156.4-32.3-0.9-0.7-2.2-0.7-2.9 0.2l-8.5 9 8.5-9c0.8-0.8 0.8-2.1 0-2.9-0.7-0.8-0.7-2 0-2.8 1.2-1.4 3.4-3.4 7.1-5.8 5 2.1 10.5 4 16.4 6 36.6 11.7 84.8 18.2 135.8 18.2 51 0 99.2-6.4 135.8-18.2 6-1.9 11.4-3.9 16.4-6 3.8 2.5 5.9 4.5 7.1 5.9 0.8 0.6 0.8 1.8 0.1 2.6z m-318.8-66.2c1.1-1.2 2.9-3 5.9-5.1 5.3 2.2 11.2 4.4 17.6 6.5 36.6 11.7 84.8 18.2 135.8 18.2 51 0 99.2-6.4 135.8-18.2 6.4-2.1 12.3-4.2 17.6-6.5 3 2.1 4.8 3.8 5.9 5.1 0.7 0.8 0.7 2 0 2.8-3.8 4.4-15.7 13-43.4 20.9-31.6 9.1-72.8 14.1-116 14.1s-84.4-5-116-14.1c-27.6-7.9-39.5-16.6-43.4-20.9-0.5-0.8-0.5-2 0.2-2.8z m318.8-59.4c-3.8 4.4-15.7 13-43.4 20.9-31.6 9.1-72.8 14.1-116 14.1s-84.4-5-116-14.1c-27.6-7.9-39.5-16.6-43.4-20.9-0.7-0.8-0.7-2 0-2.8 0.6-0.7 1.5-1.6 2.8-2.7 6.2 2.7 13 5.3 20.8 7.8 36.6 11.7 84.8 18.2 135.8 18.2 51 0 99.2-6.4 135.8-18.2 7.7-2.5 14.6-5.1 20.8-7.8 1.3 1.1 2.2 2 2.8 2.7 0.7 0.8 0.7 2 0 2.8z m0-58.5c-3.8 4.4-15.7 13-43.4 21-31.6 9.1-72.8 14.1-116 14.1s-84.4-5-116-14.1c-27.7-8-39.6-16.6-43.4-21-0.7-0.8-0.7-2 0-2.8 3.4-3.9 13.3-11.3 35.6-18.6C664 604 709.2 598 755.8 598c43.2 0 84.4 5 116 14.1 27.7 8 39.6 16.6 43.4 21 0.7 0.8 0.7 1.9 0 2.7z" p-id="3903"></path><path d="M538.6 915.3H159.3c-28.8 0-52.2-23.4-52.2-52.2v-630c0-22.7 18.5-41.2 41.2-41.2h69.2c5.8 0 10.6-4.6 10.9-10.4 0.6-11 9.6-19.6 20.6-19.6h95c5.1 0 9.5-3.5 10.7-8.4l2-8.4c5.4-22.4 25.2-38 48.2-38 23 0 42.8 15.6 48.1 38l2 8.4c1.2 4.9 5.6 8.4 10.7 8.4h95c11 0 20 8.6 20.6 19.5 0.3 5.8 5.1 10.4 10.9 10.4h69.2c22.7 0 41.2 18.5 41.2 41.2V511.4c0 12.1 9.9 21.9 21.9 21.9s21.9-9.9 21.9-21.9V233.1c0-46.9-38.2-85-85-85h-35.9c-3.7 0-7.2-1.8-9.2-5-9.5-15.1-26.3-25-45.3-25h-74.5c-4 0-7.7-2.2-9.6-5.8-5.9-11-14.1-20.7-23.9-28.6-16.5-13.2-37.1-20.4-58.2-20.4s-41.8 7.3-58.3 20.4c-9.8 7.9-18 17.6-23.9 28.6-1.9 3.5-5.6 5.8-9.6 5.8h-74.5c-19 0-35.8 9.9-45.3 25-2 3.1-5.5 5-9.2 5h-35.8c-46.9 0-85 38.1-85 85v630c0 53 43 96 96 96H538.5c12.1 0 21.9-9.9 21.9-21.9 0.1-12-9.8-21.9-21.8-21.9z" p-id="3904"></path><path d="M626.5 535v4c0 5.2 4.3 9.5 9.5 9.5s9.5-4.3 9.5-9.5V284.5c0-18.8-15.3-34.1-34.1-34.1h-8.3c-12 0-22.1 8.4-24.7 19.6-1.6 6.9-7.6 12-14.7 12h-321c-7.1 0-13.1-5-14.7-12-2.6-11.2-12.7-19.6-24.7-19.6H195c-18.8 0-34.1 15.3-34.1 34.1v569.7c0 18.8 15.3 34.1 34.1 34.1h334.5c5.2 0 9.5-4.3 9.5-9.5s-4.3-9.5-9.5-9.5H195c-8.3 0-15-6.7-15-15V284.5c0-8.3 6.7-15 15-15h0.6c7.1 0 13.1 5 14.7 12 2.6 11.2 12.7 19.6 24.7 19.6h336.6c12 0 22.1-8.4 24.7-19.6 1.6-6.9 7.6-12 14.7-12h0.6c8.3 0 15 6.7 15 15V535z" p-id="3905"></path></svg>